<svg width="121" height="130" viewBox="0 0 121 130" fill="none" xmlns="http://www.w3.org/2000/svg">
<path fill-rule="evenodd" clip-rule="evenodd" d="M24.7402 32.195C30.8179 23.6124 41.0303 23.3442 47.5502 31.5959L64.4907 53.0359L91.1295 47.9159C101.708 45.8827 109.942 52.9602 109.522 63.7238C109.121 74.014 100.954 83.9479 90.9937 86.5784L91.5413 87.2714C98.0613 95.5231 98.4197 109.17 92.342 117.752C86.2642 126.335 76.0518 126.603 69.5319 118.352L50.6004 94.3918L24.9283 99.326C14.3501 101.359 6.11541 94.2817 6.53554 83.5181C6.92654 73.5009 14.6758 63.8213 24.2753 60.8881C19.0021 52.5591 19.0832 40.1834 24.7402 32.195Z" fill="#BB9A9A"/>
<ellipse cx="17.4833" cy="17.5078" rx="17.4833" ry="17.5078" transform="matrix(-0.960402 -0.278618 -0.278618 0.960402 92.7052 34.8694)" fill="#4E7B57"/>
<ellipse cx="17.4833" cy="17.5078" rx="17.4833" ry="17.5078" transform="matrix(-0.960402 -0.278618 -0.278618 0.960402 84.2364 64.0615)" fill="#4E7B57"/>
<ellipse cx="17.4833" cy="17.5078" rx="17.4833" ry="17.5078" transform="matrix(-0.960402 -0.278618 -0.278618 0.960402 76.9493 89.1803)" fill="#4E7B57"/>
<ellipse cx="1.40235" cy="1.41376" rx="1.40235" ry="1.41376" transform="matrix(-0.960402 -0.278618 -0.278618 0.960402 82.7055 46.6889)" fill="white"/>
<ellipse cx="1.40235" cy="1.41376" rx="1.40235" ry="1.41376" transform="matrix(-0.960402 -0.278618 -0.278618 0.960402 76.1684 44.0564)" fill="white"/>
<path d="M82.3072 37.5646C82.453 37.0618 82.5573 36.5253 82.7571 36.0422C82.9873 35.4857 83.4583 35.1599 83.7439 34.6672C84.4016 33.533 85.5863 32.6659 86.4655 31.7084C87.6039 30.4686 89.1583 29.3353 90.5955 28.4904C92.6269 27.2961 94.3225 25.5154 96.5105 24.5713C98.8837 23.5473 102.117 23.4626 102.69 26.6479C102.866 27.6283 103.063 28.1871 102.783 29.1542C102.553 29.9474 101.951 30.0399 101.167 29.8126C100.388 29.5864 99.3136 29.4419 98.8681 28.6613C98.392 27.8271 98.2543 27.1413 98.0875 26.2143C97.9349 25.3667 98.9112 25.4014 99.4994 25.572C100.275 25.797 100.437 26.0279 100.997 26.5742C101.443 27.0091 101.389 27.7929 101.233 28.3291C101.123 28.7101 100.277 28.9215 100.012 28.5425C99.7556 28.175 99.6886 27.6333 99.509 27.1943C99.1618 26.346 100.165 26.8376 100.18 26.8214" stroke="#2D2D2D" stroke-width="3" stroke-linecap="round"/>
<path d="M70.3358 32.589C71.0177 30.2387 72.1295 27.6748 72.29 25.2252C72.42 23.24 72.3166 20.9384 71.7381 19.021C71.1048 16.9221 70.7182 13.3752 68.6809 12.09C68.0623 11.6998 67.6483 11.2228 66.908 11.008C66.2473 10.8163 65.7672 10.8759 65.1279 11.0927C64.0951 11.443 63.9421 12.5744 64.4138 13.44C64.9303 14.3876 66.0357 15.4876 67.1402 14.832C67.5603 14.5827 67.6902 13.9638 67.8172 13.5258C68.0039 12.8823 67.6743 12.6749 67.3751 12.1954C67.219 11.9451 66.6066 11.3944 66.2849 11.7288C66.1025 11.9185 65.6765 12.6173 65.7945 12.9056C65.9967 13.3997 66.2728 13.578 66.6627 13.9088C66.9844 14.1817 66.973 13.2809 67.5423 13.446" stroke="#2D2D2D" stroke-width="3" stroke-linecap="round"/>
<path d="M81.9337 53.0589C81.8226 53.4419 81.7623 54.0599 81.508 54.3669C80.7915 55.2319 79.0587 55.2889 78.0606 55.3765C77.04 55.4661 75.9762 55.2942 74.9903 55.0547C73.2496 54.6318 72.1281 53.7197 70.9381 52.3777C70.0482 51.374 69.2324 50.2943 68.6469 49.0831C68.424 48.622 68.212 48.127 68.3617 47.6108" stroke="white" stroke-width="3" stroke-linecap="round"/>
</svg>
